<?xml version="1.0" encoding="utf-8" ?><svg xmlns="http://www.w3.org/2000/svg" xmlns:xlink="http://www.w3.org/1999/xlink" width="500" height="500" viewBox="0 0 500 500"><path fill="#593A56" transform="matrix(0.488281 0 0 0.488281 -0.000244141 0)" d="M511.779 209.219C526.002 208.308 544.831 216.704 553.134 228.344C578.473 217.179 608.308 225.63 621.414 250.857C623.573 255.013 625.035 258.93 626.503 263.366C647.345 260.812 670.636 270.055 681.521 288.408C687.003 297.652 688.319 304.476 689.557 314.852C714.537 325.002 738.661 339.211 762.888 351.084C768.283 353.728 773.452 356.53 778.58 359.595C797.344 370.81 789.337 391.857 774.412 401.864C759.152 412.064 741.65 413.679 723.933 410.223C728.07 415.569 731.337 421.534 733.614 427.898C739.191 443.759 735.956 456.734 729.011 471.231C743.345 486.748 752.844 504.842 749.041 526.438C747.158 537.126 743.189 544.004 737.667 553.031C754.785 580.915 752.038 611.54 726.491 632.988C728.291 637.09 729.641 641.375 730.517 645.767C733.665 661.616 730.348 678.065 721.303 691.455C712.589 704.198 698.365 712.591 683.335 715.456C678.639 742.905 666.406 756.374 640.353 765.671C633.722 787.633 620.965 817.653 596.028 822.855C588.36 824.517 580.347 823.004 573.813 818.661C563.419 811.824 560.137 801.618 557.687 790.1C538.379 792.028 525.357 789.172 509.996 777.412C508.467 778.538 506.919 779.638 505.353 780.711C490.886 790.474 474.056 793.103 457.006 789.871C455.61 794.848 454.533 798.926 452.546 803.731C448.551 812.283 441.272 819.599 431.999 822.091C423.228 824.36 413.917 823.095 406.068 818.569C388.537 808.344 379.053 783.723 374.03 765.146C349.757 757.821 337.049 742.144 332.228 717.732C319.099 715.447 312.506 713.846 301.933 705.002C299.05 718.201 296.772 737.168 284.444 744.846C269.688 754.037 245.188 748.577 236.06 733.642C233.729 729.837 232.511 725.454 232.545 720.991C232.704 711.825 238.076 696.33 240.308 687.008C244.543 669.323 249.914 651.207 254.01 633.524C247.879 630.57 243.056 626.817 240.476 620.165C235.712 607.883 239.852 593.393 246.478 582.6C247.952 580.2 252.871 576.445 253.911 573.857C257.146 565.807 259.17 558.073 262.727 550.049C253.901 544.643 245.826 538.922 238.16 531.926C208.292 505.078 190.444 467.369 188.613 427.249C185.103 346.617 243.796 278.967 323.582 270.654C328.836 270.107 333.88 269.861 339.157 269.678C343.815 262.097 350.289 255.798 357.993 251.349C370.519 244.209 387.995 242.621 401.744 246.418C402.895 244.199 404.071 241.742 405.399 239.641C421.771 213.739 453.525 207.89 479.164 222.989C489.464 213.769 497.902 210.389 511.779 209.219Z"/><path fill="#FCF6DE" transform="matrix(0.488281 0 0 0.488281 -0.000244141 0)" d="M480.035 234.303C483.534 232.82 486.362 230.4 489.327 228.064C505.572 215.26 526.233 216.901 541.377 230.377C544.976 233.566 546.707 236.981 550.775 239.815C567.088 234.85 578.171 229.497 595.268 238.646C604.103 243.398 610.946 251.155 614.56 260.514C615.709 263.481 617.564 271.103 619.77 272.785C623.324 275.496 633.047 273.234 638.121 273.614C656.533 274.808 672.25 287.347 677.505 305.033C681.006 316.893 678.841 323.894 677.366 335.703L677.906 336.179C682.065 339.815 686.781 341.663 691.281 344.742C706.833 355.38 713.328 377.37 706.335 394.813C705.198 397.648 703.833 400.64 702.958 403.537C706.118 408.232 710.952 412.014 714.899 416.067C723.724 425.06 727.672 437.757 725.502 450.169C724.625 455.19 722.146 461.973 719.641 466.912C714.674 476.706 720.678 477.718 726.865 483.883C730.078 487.085 734.505 495.323 736.301 499.621C740.881 512.11 741.487 523.664 735.947 535.978C733.287 541.891 727.996 548.325 726.044 553.591C732.832 564.53 738.573 575.189 738.516 588.506C738.463 601.045 733.165 613.64 723.758 622.019C720.8 624.648 717.495 627.593 715.565 631.066C716.88 636.507 719.013 641.427 720.298 646.693C726.27 671.158 711.948 697.197 687.488 704.121C683.396 705.282 678.464 706.553 674.906 708.763C673.352 713.637 673.023 718.557 671.646 723.253C668.132 735.238 659.247 745.765 648.241 751.567C636.822 757.678 622.816 758.676 610.503 754.976C606.2 753.683 601.608 751.747 597.302 750.949C593.854 754.799 591.05 758.791 587.632 762.55C578.064 773.074 565.562 779.885 551.207 780.612C541.067 781.125 530.37 779.061 521.765 773.434C518.031 770.993 513.348 767.397 509.54 765.415L508.96 765.756C504.329 768.5 500.108 772.131 495.782 774.695C484.578 781.336 469.557 782.694 457.087 779.512C445.714 776.593 435.514 770.244 427.872 761.329C425.089 758.046 422.006 753.577 419.149 750.629L418.433 750.741C411.872 751.793 406.944 754.482 400.961 755.961C387.52 759.284 372.585 756.052 361.419 748.104C353.664 742.598 347.79 734.839 344.594 725.881C343.245 722.003 342.274 712.054 339.635 709.845C337.781 708.293 327.497 706.672 324.541 705.777C315.917 703.166 311.4 700.165 305.069 694.041C306.772 687.942 312.482 668.322 313.059 663.046C316.278 652.988 318.59 642.663 320.927 632.322C323.085 622.769 327.34 612.571 326.706 602.68C326.341 596.989 323.215 593.651 319.226 590.188C321.053 583.632 322.578 576.692 324.133 570.04C325.036 570.151 325.942 570.239 326.85 570.303C362.326 572.761 402.288 562.781 429.547 539.348C444.419 544.374 459.825 547.653 475.455 549.118C524.321 553.844 586.079 542.891 624.793 511.013C625.52 498.725 625.084 484.461 633.957 475.409C637.423 471.873 641.136 468.662 644.694 465.097C642.471 456.307 636.664 452.757 634.781 442.688C632.2 428.88 637.305 421.464 644.401 410.583C640.697 403.077 628.224 400.548 623.601 386.397C620.989 378.399 623.45 362.463 621.572 360.133C616.77 358.608 610.42 360.596 605.243 360.582C588.614 360.539 585.656 352.97 575.634 343.466C569.951 345.862 565.16 349.862 559.104 352.047C548.344 355.929 538.677 350.277 529.186 345.6C523.533 348.699 520.282 353.562 515.609 356.058C507.038 360.635 496.245 361.917 486.917 359.165C473.067 355.079 467.377 344.892 460.815 332.962C449.806 318.386 442.205 310.871 428.025 299.634C426.5 298.891 425.701 298.095 424.363 297.032C401.494 281.497 385.452 275.353 358.613 270.655C356.152 270.526 354.103 270.188 351.679 269.826C369.385 250.774 383.06 253.887 405.645 257.523C409.769 254.142 411.049 250.644 413.67 246.091C417.764 239.086 423.698 233.334 430.827 229.461C441.971 223.6 455.177 223.133 466.706 228.192C471.506 230.282 473.987 232.503 479.315 234.092L480.035 234.303Z"/><path fill="#D9C8CC" transform="matrix(0.488281 0 0 0.488281 -0.000244141 0)" d="M736.301 499.621C740.881 512.11 741.487 523.664 735.947 535.978C733.287 541.891 727.996 548.325 726.044 553.591C732.832 564.53 738.573 575.189 738.516 588.506C738.463 601.045 733.165 613.64 723.758 622.019C720.8 624.648 717.495 627.593 715.565 631.066C716.88 636.507 719.013 641.427 720.298 646.693C726.27 671.158 711.948 697.197 687.488 704.121C683.396 705.282 678.464 706.553 674.906 708.763C673.352 713.637 673.023 718.557 671.646 723.253C668.132 735.238 659.247 745.765 648.241 751.567C636.822 757.678 622.816 758.676 610.503 754.976C606.2 753.683 601.608 751.747 597.302 750.949C593.854 754.799 591.05 758.791 587.632 762.55C578.064 773.074 565.562 779.885 551.207 780.612C541.067 781.125 530.37 779.061 521.765 773.434C518.031 770.993 513.348 767.397 509.54 765.415L508.96 765.756C504.329 768.5 500.108 772.131 495.782 774.695C484.578 781.336 469.557 782.694 457.087 779.512C445.714 776.593 435.514 770.244 427.872 761.329C425.089 758.046 422.006 753.577 419.149 750.629L418.433 750.741C411.872 751.793 406.944 754.482 400.961 755.961C387.52 759.284 372.585 756.052 361.419 748.104C353.664 742.598 347.79 734.839 344.594 725.881C343.245 722.003 342.274 712.054 339.635 709.845C337.781 708.293 327.497 706.672 324.541 705.777C315.917 703.166 311.4 700.165 305.069 694.041C306.772 687.942 312.482 668.322 313.059 663.046C314.329 664.291 316.298 667.605 317.32 669.2C326.26 683.149 336.628 687.507 351.676 692.797C357.19 707.381 360.713 719.034 374.734 727.566C391.301 737.648 404.967 736.387 422.915 732.154C435.029 744.498 444.331 752.757 462.028 755.427C480.007 758.138 492.081 752.427 507.482 744.311C540.411 761.581 566.465 759.215 591.004 730.141C592.709 730.67 594.431 731.141 596.168 731.552C623.823 738.153 649.659 725.13 657.977 697.411C659.077 693.744 659.91 690.129 660.775 686.402C672.824 683.032 685.834 678.123 693.848 668.104C705.476 653.566 704.533 638.654 702.854 621.394C728.524 598.283 733.681 577.782 718.959 546.141C724.58 536.345 731.626 529.208 733.683 517.33C734.65 511.74 735.052 505.545 736.175 500.196L736.301 499.621Z"/><path fill="#D9C8CC" transform="matrix(0.488281 0 0 0.488281 -0.000244141 0)" d="M460.815 332.962C462.657 332.001 462.687 331.584 464.388 331.746C467.72 334.236 470.887 337.436 474.159 339.682C494.868 353.891 513.626 346.626 531.138 331.74C549.42 342.86 558.625 343.651 577.896 333.513C592.931 351.524 604.885 356.552 628.581 351.751C626.597 380.88 628.185 388.908 652.637 405.857C649.865 407.395 647.079 408.888 644.401 410.583C640.697 403.077 628.224 400.548 623.601 386.397C620.989 378.399 623.45 362.463 621.572 360.133C616.77 358.608 610.42 360.596 605.243 360.582C588.614 360.539 585.656 352.97 575.634 343.466C569.951 345.862 565.16 349.862 559.104 352.047C548.344 355.929 538.677 350.277 529.186 345.6C523.533 348.699 520.282 353.562 515.609 356.058C507.038 360.635 496.245 361.917 486.917 359.165C473.067 355.079 467.377 344.892 460.815 332.962Z"/><path fill="#FEFEFE" transform="matrix(0.488281 0 0 0.488281 -0.000244141 0)" d="M480.035 234.303C483.534 232.82 486.362 230.4 489.327 228.064C505.572 215.26 526.233 216.901 541.377 230.377C540.154 231.302 540.221 231.362 538.077 230.919C517.933 226.758 506.669 227.126 489.216 239.336C487.009 240.91 484.846 242.545 482.73 244.239C467.454 236.728 453.502 232.295 436.625 238.156C430.934 240.148 425.686 243.23 421.173 247.228C417.989 250.036 415.327 253.343 412.706 256.673C408.263 262.32 406.212 261.534 400.279 258.706L397.644 257.432C388.164 258.659 361.709 260.729 358.613 270.655C356.152 270.526 354.103 270.188 351.679 269.826C369.385 250.774 383.06 253.887 405.645 257.523C409.769 254.142 411.049 250.644 413.67 246.091C417.764 239.086 423.698 233.334 430.827 229.461C441.971 223.6 455.177 223.133 466.706 228.192C471.506 230.282 473.987 232.503 479.315 234.092L480.035 234.303Z"/><path fill="#D9C8CC" transform="matrix(0.488281 0 0 0.488281 -0.000244141 0)" d="M424.363 297.032L424.401 296.14C424.517 292.807 423.713 289.754 424.597 286.089C427.775 272.921 447.257 268.996 456.403 277.971C458.296 279.829 458.33 283.983 456.212 286.17C449.575 288.87 444.538 278.412 434.919 287.716L433.71 296.569C431.755 297.437 429.537 298.204 428.025 299.634C426.5 298.891 425.701 298.095 424.363 297.032Z"/><path fill="#593A56" transform="matrix(0.488281 0 0 0.488281 -0.000244141 0)" d="M619.037 644.171C617.169 642.501 615.021 640.544 613.355 638.675C596.212 619.45 620.58 592.674 632.738 577.685C636.943 572.501 645.233 561.007 652.034 561.758C654.335 563.352 655.375 565.949 653.498 568.69C644.994 581.106 614.18 610.444 618.516 626.855C624.043 647.769 662.915 631.225 672.835 622.84C675.338 620.724 684.928 613.91 688.466 612.468C697.913 612.411 691.435 621.796 689.391 624.116C685.832 634.583 670.029 646.013 660.554 651.069C648.398 657.555 624.926 659.881 619.037 644.171Z"/><path fill="#D9C8CC" transform="matrix(0.488281 0 0 0.488281 -0.000244141 0)" d="M619.037 644.171C621.87 645.372 624.822 646.272 627.844 646.857C650.177 650.963 671.951 636.059 689.391 624.116C685.832 634.583 670.029 646.013 660.554 651.069C648.398 657.555 624.926 659.881 619.037 644.171Z"/><path fill="#D9C8CC" transform="matrix(0.488281 0 0 0.488281 -0.000244141 0)" d="M676.825 451.407C682.309 451.853 687.359 456.103 689.535 461.053C691.807 466.293 691.819 472.237 689.568 477.486C686.551 484.457 681.357 487.423 674.735 490.078C672.158 489.377 669.748 488.445 668.439 485.933C668.299 479.61 676.666 478.179 679.344 474.131C686.434 463.409 663.487 460.689 676.825 451.407Z"/><path fill="#D9C8CC" transform="matrix(0.488281 0 0 0.488281 -0.000244141 0)" d="M582.794 273.61C587.025 273.352 590.601 273.55 594.554 275.361C599.333 277.578 603.007 281.638 604.739 286.613C607.168 293.524 605.3 305.683 595.625 299.041C594.757 296.723 595.577 291.189 594.076 288.228C589.941 279.827 580.708 288.073 574.513 285.751C572.664 285.059 570.858 281.291 572.381 279.423C575.21 275.956 578.738 274.907 582.794 273.61Z"/><path fill="#D9C8CC" transform="matrix(0.488281 0 0 0.488281 -0.000244141 0)" d="M612.633 652.453C619.704 652.34 621.765 657.281 620.544 663.658C619.464 669.302 616.112 674.253 611.273 677.352C605.593 680.926 600.661 680.548 594.542 679.185C590.85 677.582 585.079 673.885 588.27 669.308C592.927 666.815 598.049 669.501 603.221 668.675C612.757 667.151 606.786 659.795 612.633 652.453Z"/><path fill="#D9C8CC" transform="matrix(0.488281 0 0 0.488281 -0.000244141 0)" d="M364.702 633.867C371.707 635.625 369.542 640.786 370.011 646.781C370.81 657.01 391.738 648.221 392.362 656.433C391.213 659.036 388.451 660.978 385.99 662.235C382.027 663.153 379.553 663.751 375.383 663.048C370.041 662.113 365.294 659.081 362.201 654.627C357.203 647.509 356.953 638.977 364.702 633.867Z"/><path fill="#D9C8CC" transform="matrix(0.488281 0 0 0.488281 -0.000244141 0)" d="M478.813 690.862C484.483 691.077 484.65 693.223 487.593 697.555C494.344 707.494 502.298 692.49 510.103 694.057C513.512 696.935 511.905 700.821 509.857 703.972C506.267 707.664 502.01 709.915 496.896 710.685C491.165 711.559 485.327 710.039 480.751 706.48C475.083 702.008 474.404 696.488 478.813 690.862Z"/><path fill="#D9C8CC" transform="matrix(0.488281 0 0 0.488281 -0.000244141 0)" d="M564.037 589.787C580.259 594.352 564.867 621.68 543.908 612.502C535.753 608.042 534.912 598.15 546.135 601.684C547.226 602.027 553.182 603.577 554.158 603.472C561.35 602.696 557.989 595.393 564.037 589.787Z"/><path fill="#D9C8CC" transform="matrix(0.488281 0 0 0.488281 -0.000244141 0)" d="M402.376 577.335C410.074 577.855 408.565 583.433 410.653 589.326L410.869 589.92C412.159 590.535 413.479 591.301 414.801 591.815C420.952 594.208 422.562 587.51 429.025 590.183C432.221 593.769 430.112 597.146 427.173 599.961C419.678 603.225 412.351 603.947 405.455 598.862C397.51 593.004 396.265 584.933 402.376 577.335Z"/><path fill="#FECE72" transform="matrix(0.488281 0 0 0.488281 -0.000244141 0)" d="M204.734 463.07C185.499 403.293 208.309 338.013 260.587 303.224C312.865 268.434 381.89 272.601 429.604 313.426C455.985 335.999 473.064 367.549 477.541 401.981C484.057 452.103 463.122 501.859 422.73 532.244C382.339 562.629 328.73 568.952 282.378 548.796C245.379 532.708 217.092 501.477 204.734 463.07Z"/><path fill="#FCF6DE" transform="matrix(0.488281 0 0 0.488281 -0.000244141 0)" d="M204.734 463.07C185.499 403.293 208.309 338.013 260.587 303.224C312.865 268.434 381.89 272.601 429.604 313.426L428.859 313.716C424.865 311.673 421.586 308.415 417.96 305.823C414.754 303.531 410.993 301.453 407.49 299.653C374.463 282.651 336.014 279.544 300.685 291.021C263.558 303.361 232.849 329.939 215.31 364.913C202.405 390.666 197.547 421.136 202.33 449.824C202.776 452.495 204.942 460.871 204.734 463.07Z"/><path fill="#E1AA59" transform="matrix(0.488281 0 0 0.488281 -0.000244141 0)" d="M477.541 401.981C484.057 452.103 463.122 501.859 422.73 532.244C382.339 562.629 328.73 568.952 282.378 548.796C287.991 548.682 297.37 552.679 303.162 553.816C327.212 558.541 350.936 557.386 374.18 549.949C427.037 533.007 465.928 487.854 474.849 433.07C475.955 426.224 476.731 419.882 476.51 412.923C476.415 409.931 475.915 404.321 477.541 401.981Z"/><path fill="#593A56" transform="matrix(0.488281 0 0 0.488281 -0.000244141 0)" d="M330.812 298.24C398.255 294.036 456.318 345.343 460.445 412.791C464.573 480.238 413.2 538.242 345.747 542.293C278.404 546.337 220.513 495.065 216.392 427.726C212.272 360.387 263.478 302.438 330.812 298.24Z"/><path fill="#593A56" transform="matrix(0.488281 0 0 0.488281 -0.000244141 0)" d="M343.853 363.049L344.967 362.699C348.942 364.838 352.437 368.39 356.157 370.604C367.521 377.366 378.143 379.751 390.972 381.158C391.157 394.77 391.325 408.42 391.259 421.944C391.168 440.42 390.312 453.638 376.352 467.223C366.536 476.775 357.031 483.719 344.702 489.944C324.256 477.637 300.604 463.092 298.884 436.588C297.412 421.953 298.384 397.351 298.484 381.711C319.226 378.348 326.935 375.855 343.853 363.049Z"/><path fill="#FECE72" transform="matrix(0.488281 0 0 0.488281 -0.000244141 0)" d="M343.853 363.049L344.967 362.699C348.942 364.838 352.437 368.39 356.157 370.604C367.521 377.366 378.143 379.751 390.972 381.158C391.157 394.77 391.325 408.42 391.259 421.944C391.168 440.42 390.312 453.638 376.352 467.223C366.536 476.775 357.031 483.719 344.702 489.944C324.256 477.637 300.604 463.092 298.884 436.588C310.662 432.205 305.855 420.672 306.8 409.991L306.865 409.312C307.127 419.435 306.236 431.705 308.012 441.521C311.233 459.32 330.48 471.089 344.558 480.549C386.052 457.196 386.384 437.373 381.773 390.433C381.5 387.649 361.787 384.358 358.21 381.622C354.898 379.088 348.144 374.771 344.031 373.275C344.732 369.57 345.78 366.099 343.853 363.049Z"/><path fill="#FCF6DE" transform="matrix(0.488281 0 0 0.488281 -0.000244141 0)" d="M343.853 363.049C345.78 366.099 344.732 369.57 344.031 373.275C332.249 383.015 320.859 384.826 307.366 389.856C306.425 396.703 307.232 402.864 306.865 409.312L306.8 409.991C305.855 420.672 310.662 432.205 298.884 436.588C297.412 421.953 298.384 397.351 298.484 381.711C319.226 378.348 326.935 375.855 343.853 363.049Z"/><path fill="#FCF6DE" transform="matrix(0.488281 0 0 0.488281 -0.000244141 0)" d="M346.543 382.883C358.979 390.195 362.158 391.16 376.022 394.766L376.033 424.507L346.496 424.496L346.543 382.883Z"/><path fill="#FECE72" transform="matrix(0.488281 0 0 0.488281 -0.000244141 0)" d="M341.764 383.439L342.595 383.651C343.561 386.127 343.108 418.821 343.101 424.075L315.055 424.044C313.062 421.445 313.936 399.513 313.994 394.549C326.524 391.58 330.902 389.907 341.764 383.439Z"/><path fill="#FCF6DE" transform="matrix(0.488281 0 0 0.488281 -0.000244141 0)" d="M313.898 427.518L343.096 427.525C343.158 441.82 343.419 456.737 343.121 470.982C338.16 468.534 329.561 461.392 325.597 457.555C315.385 447.668 314.146 440.862 313.898 427.518Z"/><path fill="#FECE72" transform="matrix(0.488281 0 0 0.488281 -0.000244141 0)" d="M346.429 427.596C356.304 427.48 366.18 427.56 376.051 427.838C375.974 442.889 373.48 447.333 363.652 457.83C358.023 463.077 352.614 467.002 346.415 471.445L346.429 427.596Z"/><path fill="#FCF6DE" transform="matrix(0.488281 0 0 0.488281 -0.000244141 0)" d="M402.617 380.177C403.945 374.872 412.118 365.954 417.738 365.196C419.66 364.937 421.676 366.885 423.17 368.055C428.002 367.202 435.095 370.869 439.933 372.439C461.911 423.752 449.998 471.498 408.355 508.273C406.099 510 400.309 514.046 398.57 515.612C396.15 517.43 391.894 520.472 388.94 520.84C381.285 516.675 374.22 511.507 367.933 505.471C368.659 497.285 368.548 493.129 366.635 485.099C367.835 482.038 372.952 479.524 375.843 478.157C377.865 476.847 379.511 475.199 381.201 473.508C398.453 456.234 399.112 442.915 398.985 420.078C398.87 410.292 398.849 400.506 398.922 390.72C399.601 385.172 396.784 382.632 402.617 380.177Z"/><path fill="#624B67" transform="matrix(0.488281 0 0 0.488281 -0.000244141 0)" d="M366.635 485.099C367.835 482.038 372.952 479.524 375.843 478.157C376.774 481.597 377.985 485.666 378.63 489.104C387.533 494.203 399.484 502.486 408.355 508.273C406.099 510 400.309 514.046 398.57 515.612C396.15 517.43 391.894 520.472 388.94 520.84C381.285 516.675 374.22 511.507 367.933 505.471C368.659 497.285 368.548 493.129 366.635 485.099Z"/><path fill="#D9C8CC" transform="matrix(0.488281 0 0 0.488281 -0.000244141 0)" d="M378.63 489.104C387.533 494.203 399.484 502.486 408.355 508.273C406.099 510 400.309 514.046 398.57 515.612C391.376 510.218 385.906 507.199 378.462 500.936C378.577 497.045 378.576 493.01 378.63 489.104Z"/><path fill="#593A56" transform="matrix(0.488281 0 0 0.488281 -0.000244141 0)" d="M402.617 380.177C403.945 374.872 412.118 365.954 417.738 365.196C419.66 364.937 421.676 366.885 423.17 368.055C426.501 371.666 429.169 374.339 431.793 378.56C420.704 398.616 415.094 395.156 402.617 380.177Z"/><path fill="#7BDFEE" transform="matrix(0.488281 0 0 0.488281 -0.000244141 0)" d="M417.356 369.852C420.228 372.344 424.043 376.517 426.778 379.339C423.66 382.316 420.555 385.598 417.534 388.694C414.074 385.773 411.112 382.417 408.045 379.092L417.356 369.852Z"/><path fill="#624B67" transform="matrix(0.488281 0 0 0.488281 -0.000244141 0)" d="M425.729 418.183C435.671 416.77 444.871 423.698 446.26 433.643C447.649 443.588 440.698 452.772 430.75 454.136C420.835 455.497 411.69 448.575 410.306 438.664C408.922 428.753 415.821 419.591 425.729 418.183Z"/><path fill="#593A56" transform="matrix(0.488281 0 0 0.488281 -0.000244141 0)" d="M405.834 463.951C412.667 463.558 422.542 475.374 425.596 481.024C421.769 487.563 416.189 492.639 410.63 497.691C404.107 498.434 401.376 493.692 396.959 489.957C384.753 479.633 396.778 472.308 405.834 463.951Z"/><path fill="#AAF184" transform="matrix(0.488281 0 0 0.488281 -0.000244141 0)" d="M407.609 468.894C409.895 470.041 417.942 478.487 420.175 480.79L408.501 493.122C405.473 491.115 398.677 483.767 395.927 480.894C399.836 476.974 403.744 472.871 407.609 468.894Z"/><path fill="#FCF6DE" transform="matrix(0.488281 0 0 0.488281 -0.000244141 0)" d="M290.994 405.45C290.974 421.57 288.921 436.99 294.583 452.691C301.352 471.463 326.985 490.556 344.766 498.47C351.108 496.156 361.362 489.274 366.635 485.099C368.548 493.129 368.659 497.285 367.933 505.471C374.22 511.507 381.285 516.675 388.94 520.84C379.733 524.997 373.456 527.867 363.302 529.941C334.476 535.83 304.243 531.496 279.472 515.398C275.477 513.433 271.895 510.311 268.486 507.478C268.357 499.288 269.416 494.759 272.104 486.939C277.249 475.296 282.942 471.439 290.046 461.426C287.076 453.71 283.151 449.219 281.732 439.717C279.573 425.27 283.002 416.906 290.994 405.45Z"/><path fill="#D9C8CC" transform="matrix(0.488281 0 0 0.488281 -0.000244141 0)" d="M272.104 486.939C273.741 490.107 273.992 498.135 275.005 502.302C276.285 507.561 277.379 510.345 279.472 515.398C275.477 513.433 271.895 510.311 268.486 507.478C268.357 499.288 269.416 494.759 272.104 486.939Z"/><path fill="#593A56" transform="matrix(0.488281 0 0 0.488281 -0.000244141 0)" d="M294.852 472.463C301.406 472.257 307.893 480.284 310.643 485.648C307.429 491.878 304.4 494.4 299.011 498.74C298.787 498.744 298.564 498.745 298.341 498.743C293.695 498.683 290.574 495.603 287.364 492.623C278.604 484.489 288.92 477.563 294.852 472.463Z"/><path fill="#7BDFEE" transform="matrix(0.488281 0 0 0.488281 -0.000244141 0)" d="M296.813 477.325C299.832 479.791 302.843 482.868 305.658 485.618C303.091 488.47 299.921 491.444 297.154 494.16C294.135 492.021 290.983 488.645 288.309 485.967C291.001 483.107 294.038 480.143 296.813 477.325Z"/><path fill="#FCF6DE" transform="matrix(0.488281 0 0 0.488281 -0.000244141 0)" d="M325.436 308.391C325.849 308.327 326.416 308.23 327.001 308.191C360.81 305.964 387.97 315.339 413.243 336.93C415.845 339.281 417.139 340.588 419.435 343.236C423.728 346.022 427.619 349.914 428.539 355.122C434.551 360.076 437.138 365.218 439.933 372.439C435.095 370.869 428.002 367.202 423.17 368.055C421.676 366.885 419.66 364.937 417.738 365.196C412.118 365.954 403.945 374.872 402.617 380.177C396.784 382.632 399.601 385.172 398.922 390.72C397.358 382.087 401.791 373.063 388.49 373.462C385.096 374.028 378.894 372.021 375.592 370.87C373.681 370.24 371.981 369.583 370.105 368.853C359.444 364.227 353.721 358.036 344.477 353.614C324.129 366.038 326.893 368.952 301.011 373.755C301.01 366.186 301.94 362.46 304.527 355.447C306.545 357.524 311.786 363.311 314.057 363.972C321.11 366.021 332.784 350.909 334.579 345.735L334.052 344.961C331.93 341.787 327.198 337.452 325.368 334.636C325.863 333.435 328.025 329.852 327.942 328.711C327.422 321.6 325.661 315.66 325.436 308.391Z"/><path fill="#624B67" transform="matrix(0.488281 0 0 0.488281 -0.000244141 0)" d="M380.03 354.684C396.609 358.856 408.383 357.327 419.435 343.236C423.728 346.022 427.619 349.914 428.539 355.122C434.551 360.076 437.138 365.218 439.933 372.439C435.095 370.869 428.002 367.202 423.17 368.055C421.676 366.885 419.66 364.937 417.738 365.196C412.118 365.954 403.945 374.872 402.617 380.177C396.784 382.632 399.601 385.172 398.922 390.72C397.358 382.087 401.791 373.063 388.49 373.462C385.096 374.028 378.894 372.021 375.592 370.87C377.706 365.365 372.018 362.25 380.03 354.684Z"/><path fill="#D9C8CC" transform="matrix(0.488281 0 0 0.488281 -0.000244141 0)" d="M386.59 366.968C398.428 367.493 408.236 367.606 417.64 359.449C419.424 357.902 422.89 355.148 425.068 354.238C426.199 353.765 427.438 354.549 428.539 355.122C434.551 360.076 437.138 365.218 439.933 372.439C435.095 370.869 428.002 367.202 423.17 368.055C421.676 366.885 419.66 364.937 417.738 365.196C412.118 365.954 403.945 374.872 402.617 380.177C396.784 382.632 399.601 385.172 398.922 390.72C397.358 382.087 401.791 373.063 388.49 373.462L386.925 372.811C386.043 371.071 386.453 368.984 386.59 366.968Z"/><path fill="#D9C8CC" transform="matrix(0.488281 0 0 0.488281 -0.000244141 0)" d="M413.243 336.93C415.845 339.281 417.139 340.588 419.435 343.236C408.383 357.327 396.609 358.856 380.03 354.684C372.018 362.25 377.706 365.365 375.592 370.87C373.681 370.24 371.981 369.583 370.105 368.853C371.988 364.138 370.411 351.574 369.87 346.127C387.96 350.919 399.271 350.458 413.243 336.93Z"/><path fill="#FEFEFE" transform="matrix(0.488281 0 0 0.488281 -0.000244141 0)" d="M232.914 382.929C234.258 383.995 235.626 385.03 237.018 386.033C251.167 396.026 268.76 398.477 285.557 395.446C267.642 417.351 266.523 435.141 277.941 460.629C272.114 466.804 270.014 469.004 265.474 476.4C260.935 484.628 260.065 489.282 258.336 498.311C248.849 488.973 241.188 477.945 235.746 465.795C224.468 440.687 223.007 408.755 232.914 382.929Z"/><path fill="#593A56" transform="matrix(0.488281 0 0 0.488281 -0.000244141 0)" d="M251.037 431.365C255.668 431.847 266.981 440.955 266.623 445.915C266.332 449.951 257.846 457.149 254.406 459.833C248.995 460.477 238.672 450.789 238.55 445.694C238.451 441.593 248.058 433.901 251.037 431.365Z"/><path fill="#AAF184" transform="matrix(0.488281 0 0 0.488281 -0.000244141 0)" d="M252.264 436.858C255.324 438.597 259.578 443.048 262.237 445.681C259.293 449.002 256.093 451.989 252.897 455.062C250.514 453.871 245.309 448.021 243.273 445.803C246.254 442.985 249.177 439.793 252.264 436.858Z"/><defs><linearGradient id="gradient_0" gradientUnits="userSpaceOnUse" x1="285.96982" y1="383.76001" x2="273.20297" y2="332.85776"><stop offset="0" stop-color="#CCB7BF"/><stop offset="1" stop-color="#F0F5E9"/></linearGradient></defs><path fill="url(#gradient_0)" transform="matrix(0.488281 0 0 0.488281 -0.000244141 0)" d="M248.611 353.398C250.146 350.86 254.714 344.912 256.945 343.818C269.864 337.479 301.584 320.487 314.42 316.8C315.684 317.508 315.394 317.814 316.004 319.67C316.035 322.211 316.142 322.97 316.655 325.466C299.639 335.617 303.338 338.126 292.052 351.306C279.286 341.831 280.488 353.07 271.851 358.476C266.471 361.844 252.435 361.276 247.99 367.529C246.35 369.454 249.214 373.196 251.841 373.316C259.622 373.67 268.427 370.101 275.442 367.142C280.8 373.126 282.667 376.964 290.447 372.212L290.599 383.81C275.221 386.948 258.578 387.211 244.971 378.318C242.18 376.456 239.591 374.307 237.248 371.906C239.331 367.982 245.699 355.913 248.611 353.398Z"/><path fill="#FEFEFE" transform="matrix(0.488281 0 0 0.488281 -0.000244141 0)" d="M248.611 353.398C250.146 350.86 254.714 344.912 256.945 343.818C269.864 337.479 301.584 320.487 314.42 316.8C315.684 317.508 315.394 317.814 316.004 319.67C315.055 321.5 315.132 321.616 313.248 322.594C295.257 331.939 276.715 340.179 258.661 349.409C256.382 350.574 251.006 353.503 248.611 353.398Z"/><path fill="#7BDFEE" transform="matrix(0.488281 0 0 0.488281 -0.000244141 0)" d="M315.91 333.325C318.623 334.91 327.066 343.943 329.609 346.581L316.464 359.937C313.247 357.935 305.739 349.546 302.882 346.443C307.349 342.195 311.693 337.821 315.91 333.325Z"/><path fill="#7BDFEE" transform="matrix(0.488281 0 0 0.488281 -0.000244141 0)" d="M284.69 352.344C287.652 354.507 291.378 358.367 294.066 361.045C291.439 363.885 288.151 366.962 285.359 369.706C283.327 368.981 278.179 363.209 276.329 361.271L284.69 352.344Z"/><path fill="#FCF6DE" transform="matrix(0.488281 0 0 0.488281 -0.000244141 0)" d="M573.65 356.404C583.005 366.121 591.964 371.06 605.83 371.292C607.699 371.336 609.569 371.268 611.43 371.088C611.494 374.535 611.455 379.047 611.761 382.39C615.203 395.723 619.443 403.646 630.737 411.794C621.585 430.715 620.127 444.089 631.7 462.55C622.129 471.742 617.735 479.245 615.221 492.67C614.994 496.973 614.94 501.283 615.058 505.59C575.251 535.347 516.874 544.902 468.396 537.883C458.387 536.395 448.491 534.218 438.781 531.367C441.502 528.866 444.272 526.359 446.956 523.825C457.39 512.132 463.04 504.218 470.842 490.607C479.722 500.047 487.051 500.78 497.719 493.402C501.809 496.117 504.637 497.515 509.698 497.857C518.063 498.421 525.462 493.832 525.415 484.857C525.409 483.69 524.916 482.35 523.896 481.712C518.872 478.734 514.664 487.235 509.844 487.975C503.03 489.02 503.468 476.983 503.462 472.504C507.936 470.098 514.522 466.725 517.104 462.187C518.846 459.126 515.818 456.451 512.98 455.642C508.844 456.098 501.842 461.235 498.204 463.606L484.261 454.391C491.519 429.009 488.698 404.082 482.587 378.997L478.722 366.996C497.867 373.324 514.822 371.915 529.945 357.83C546.392 365.87 557.743 365.602 573.65 356.404Z"/><path fill="#D9C8CC" transform="matrix(0.488281 0 0 0.488281 -0.000244141 0)" d="M446.956 523.825C448.824 524.37 451.061 524.836 452.971 525.249C500.271 535.485 551.731 529.624 594.577 506.702C601.828 502.823 608.289 497.155 615.221 492.67C614.994 496.973 614.94 501.283 615.058 505.59C575.251 535.347 516.874 544.902 468.396 537.883C458.387 536.395 448.491 534.218 438.781 531.367C441.502 528.866 444.272 526.359 446.956 523.825Z"/><path fill="#D9C8CC" transform="matrix(0.488281 0 0 0.488281 -0.000244141 0)" d="M573.65 356.404C583.005 366.121 591.964 371.06 605.83 371.292C607.699 371.336 609.569 371.268 611.43 371.088C611.494 374.535 611.455 379.047 611.761 382.39C596.348 382.452 587.763 380.532 575.565 370.982C559.367 376.812 550.751 377.366 534.738 371.35C532.385 373.042 529.908 374.555 527.328 375.876C512.768 383.264 497.961 383.998 482.587 378.997L478.722 366.996C497.867 373.324 514.822 371.915 529.945 357.83C546.392 365.87 557.743 365.602 573.65 356.404Z"/><path fill="#593A56" transform="matrix(0.488281 0 0 0.488281 -0.000244141 0)" d="M561.204 418.763C570.881 416.342 580.697 422.186 583.182 431.847C585.666 441.507 579.887 451.362 570.243 453.91C560.509 456.482 550.541 450.637 548.033 440.886C545.525 431.135 551.436 421.206 561.204 418.763Z"/><path fill="#FECE72" transform="matrix(0.488281 0 0 0.488281 -0.000244141 0)" d="M282.76 596.99C282.487 596.533 282.217 596.074 281.951 595.614C280.838 593.686 280.092 592.8 280.61 590.842C282.602 590.165 282.575 590.538 284.968 590.948C290.337 592.541 296.499 593.605 301.512 595.2C314.122 597.415 319.096 598.081 315.782 612.151C313.909 620.1 311.797 628.111 309.745 636.028L298.046 680.956L290.873 709.228C286.035 728.496 285.142 743.952 259.795 738.598C255.879 737.061 253.735 736.552 250.101 734.285C245.894 731.142 241.787 725.978 242.564 720.383C243.939 710.469 247.006 700.604 249.483 690.872L263.774 634.767C268.61 633.812 270.642 633.173 275.089 631.17C287.515 620.771 288.865 611.559 282.76 596.99Z"/><path fill="#E1AA59" transform="matrix(0.488281 0 0 0.488281 -0.000244141 0)" d="M301.512 595.2C314.122 597.415 319.096 598.081 315.782 612.151C313.909 620.1 311.797 628.111 309.745 636.028L298.046 680.956L290.873 709.228C286.035 728.496 285.142 743.952 259.795 738.598C261.892 737.147 264.279 735.694 266.012 733.816C271.12 728.282 297.801 620.732 300.488 607.127C301.295 603.039 301.598 599.374 301.512 595.2Z"/><path fill="#FCF6DE" transform="matrix(0.488281 0 0 0.488281 -0.000244141 0)" d="M275.089 631.17C274.677 637.62 270.365 652.007 268.533 658.936L259.624 693.383C255.614 708.327 252.194 718.949 250.101 734.285C245.894 731.142 241.787 725.978 242.564 720.383C243.939 710.469 247.006 700.604 249.483 690.872L263.774 634.767C268.61 633.812 270.642 633.173 275.089 631.17Z"/><path fill="#FEFEFE" transform="matrix(0.488281 0 0 0.488281 -0.000244141 0)" d="M282.76 596.99C282.487 596.533 282.217 596.074 281.951 595.614C280.838 593.686 280.092 592.8 280.61 590.842C282.602 590.165 282.575 590.538 284.968 590.948C284.328 593.141 283.926 595.032 282.76 596.99Z"/><path fill="#FCF6DE" transform="matrix(0.488281 0 0 0.488281 -0.000244141 0)" d="M385.097 766.981C399.379 767.694 402.471 766.571 415.424 761.962C425.052 774.557 432.106 780.99 447.192 786.899C446.166 791.032 445.582 793.612 443.951 797.506C438.808 809.6 428.578 816.541 415.309 811.379C402.373 806.346 394.889 790.832 389.634 778.858C387.873 774.751 386.584 771.189 385.097 766.981Z"/><path fill="#D9C8CC" transform="matrix(0.488281 0 0 0.488281 -0.000244141 0)" d="M385.097 766.981C399.379 767.694 402.471 766.571 415.424 761.962C425.052 774.557 432.106 780.99 447.192 786.899C446.166 791.032 445.582 793.612 443.951 797.506C442.172 796.336 434.878 793.911 432.4 792.749C423.409 788.537 417.59 781.994 411.126 774.838C410.993 774.874 410.86 774.91 410.726 774.946L410.056 775.115C404.988 776.439 391.912 777.784 389.634 778.858C387.873 774.751 386.584 771.189 385.097 766.981Z"/><path fill="#FCF6DE" transform="matrix(0.488281 0 0 0.488281 -0.000244141 0)" d="M600.816 762.113C611.89 766.726 616.909 767.235 629.038 767.529C627.737 771.407 626.584 774.31 624.976 778.082C621.571 786.145 618.175 793.837 612.493 800.576C598.852 816.755 581.043 819.087 570.58 798.535C569.481 795.607 568.452 791.104 567.639 787.955C583.548 780.908 590.445 776.423 600.816 762.113Z"/><path fill="#D9C8CC" transform="matrix(0.488281 0 0 0.488281 -0.000244141 0)" d="M600.816 762.113C611.89 766.726 616.909 767.235 629.038 767.529C627.737 771.407 626.584 774.31 624.976 778.082C621.709 777.021 610.301 776.282 606.46 775.822C598.6 783.383 592.974 788.52 582.813 793.302C579.458 794.88 573.443 797.026 570.58 798.535C569.481 795.607 568.452 791.104 567.639 787.955C583.548 780.908 590.445 776.423 600.816 762.113Z"/><path fill="#FCF6DE" transform="matrix(0.488281 0 0 0.488281 -0.000244141 0)" d="M688.899 330.722L689.669 325.132C714.579 338.509 740.418 350.162 765.328 363.547C772.93 367.632 779.611 370.536 778.941 380.123C777.363 384.716 776.053 387.422 772.073 390.586C767.195 390.113 767.065 389.588 764.073 385.783L763.877 385.379L763.541 384.711C759.504 376.52 753.654 379.377 746.35 376.698C736.18 372.967 726.558 367.808 717.038 362.695C711.944 350.321 708.918 345.813 699.023 336.747C695.687 334.759 692.255 332.645 688.899 330.722Z"/><path fill="#FEFEFE" transform="matrix(0.488281 0 0 0.488281 -0.000244141 0)" d="M688.899 330.722L689.669 325.132C714.579 338.509 740.418 350.162 765.328 363.547C772.93 367.632 779.611 370.536 778.941 380.123C774.974 377.634 771.434 374.324 767.202 371.991C752.108 363.728 736.682 356.162 721.628 347.804C715.444 344.371 705.757 337.894 699.023 336.747C695.687 334.759 692.255 332.645 688.899 330.722Z"/><path fill="#FCF6DE" transform="matrix(0.488281 0 0 0.488281 -0.000244141 0)" d="M280.912 566.994C282.284 568.437 279.155 578.016 278.566 580.207C258.572 584.546 266.921 588.39 273.383 601.967C280.04 615.957 274.64 622.906 260.273 624.339C248.609 621.587 246.985 610.719 249.788 600.363C254.151 584.245 267.057 574.918 280.912 566.994Z"/><path fill="#D9C8CC" transform="matrix(0.488281 0 0 0.488281 -0.000244141 0)" d="M719.933 375.601C726.909 379.198 753.501 390.947 760.516 389.658C762.466 388.565 762.782 387.717 764.073 385.783C767.065 389.588 767.195 390.113 772.073 390.586C755.292 403.977 736.63 403.811 716.766 398.243C719.434 389.053 719.806 385.261 719.933 375.601Z"/><path fill="#E1AA59" transform="matrix(0.488281 0 0 0.488281 -0.000244141 0)" d="M292.937 563.254C300.039 565.298 307.019 566.762 313.92 568.697C312.7 574.794 311.28 580.849 309.664 586.854L298.568 583.891L288.38 581.511C289.461 578.258 290.364 574.981 291.301 571.685L292.937 563.254Z"/><path fill="#FECE72" transform="matrix(0.488281 0 0 0.488281 -0.000244141 0)" d="M291.301 571.685C294.836 573.357 297.824 574.369 301.603 575.43C300.994 577.749 300.099 582.253 298.568 583.891L288.38 581.511C289.461 578.258 290.364 574.981 291.301 571.685Z"/><path fill="#FCF6DE" transform="matrix(0.488281 0 0 0.488281 -0.000244141 0)" d="M481.265 465.144C483.178 466.047 490.015 470.541 492.491 472.013C493.129 479.468 494.069 482.279 487.85 487.196C482.511 488.664 478.758 483.876 476.49 479.81C477.691 474.622 479.432 470.106 481.265 465.144Z"/><path fill="#D9C8CC" transform="matrix(0.488281 0 0 0.488281 -0.000244141 0)" d="M271.444 555.211C273.093 555.55 273.104 555.45 274.464 556.383C274.401 557.863 274.194 557.568 272.803 558.968C271.471 559.63 271.364 559.897 269.96 559.676C269.687 558.329 270.792 556.57 271.444 555.211Z"/></svg>